<svg xmlns="http://www.w3.org/2000/svg" width="1300" height="760" viewBox="0 0 1300 760">
<rect width="100%" height="100%" fill="white"/>
<text x="650" y="42" text-anchor="middle" font-size="28" font-family="Arial" font-weight="bold">ACM MM 2025 Regular Papers by Research Direction</text>
<text x="650" y="70" text-anchor="middle" font-size="16" font-family="Arial" fill="#444">Keyword-based classification from accepted regular paper titles</text>
<line x1="120" y1="540" x2="1250" y2="540" stroke="#222" stroke-width="2"/>
<line x1="120" y1="90" x2="120" y2="540" stroke="#222" stroke-width="2"/>
<line x1="114" y1="540.0" x2="120" y2="540.0" stroke="#222"/>
<text x="108" y="545.0" text-anchor="end" font-size="12" font-family="Arial">0</text>
<line x1="114" y1="450.0" x2="120" y2="450.0" stroke="#222"/>
<text x="108" y="455.0" text-anchor="end" font-size="12" font-family="Arial">50</text>
<line x1="120" y1="450.0" x2="1250" y2="450.0" stroke="#ddd" stroke-dasharray="3,4"/>
<line x1="114" y1="360.0" x2="120" y2="360.0" stroke="#222"/>
<text x="108" y="365.0" text-anchor="end" font-size="12" font-family="Arial">100</text>
<line x1="120" y1="360.0" x2="1250" y2="360.0" stroke="#ddd" stroke-dasharray="3,4"/>
<line x1="114" y1="270.0" x2="120" y2="270.0" stroke="#222"/>
<text x="108" y="275.0" text-anchor="end" font-size="12" font-family="Arial">151</text>
<line x1="120" y1="270.0" x2="1250" y2="270.0" stroke="#ddd" stroke-dasharray="3,4"/>
<line x1="114" y1="180.0" x2="120" y2="180.0" stroke="#222"/>
<text x="108" y="185.0" text-anchor="end" font-size="12" font-family="Arial">201</text>
<line x1="120" y1="180.0" x2="1250" y2="180.0" stroke="#ddd" stroke-dasharray="3,4"/>
<line x1="114" y1="90.0" x2="120" y2="90.0" stroke="#222"/>
<text x="108" y="95.0" text-anchor="end" font-size="12" font-family="Arial">252</text>
<line x1="120" y1="90.0" x2="1250" y2="90.0" stroke="#ddd" stroke-dasharray="3,4"/>
<rect x="120.0" y="90.0" width="81.3" height="450.0" fill="#4E79A7"/>
<text x="160.7" y="82.0" text-anchor="middle" font-size="12" font-family="Arial">252</text>
<text x="160.7" y="560" text-anchor="middle" font-size="11" font-family="Arial" transform="rotate(33 160.7 560)">Generation / Diffusion / AIGC</text>
<text x="160.7" y="586" text-anchor="middle" font-size="10" fill="#555" font-family="Arial">20.16%</text>
<rect x="215.3" y="97.1" width="81.3" height="442.9" fill="#F28E2B"/>
<text x="256.0" y="89.1" text-anchor="middle" font-size="12" font-family="Arial">248</text>
<text x="256.0" y="560" text-anchor="middle" font-size="11" font-family="Arial" transform="rotate(33 256.0 560)">Other / General Multimedia</text>
<text x="256.0" y="586" text-anchor="middle" font-size="10" fill="#555" font-family="Arial">19.84%</text>
<rect x="310.7" y="148.9" width="81.3" height="391.1" fill="#E15759"/>
<text x="351.3" y="140.9" text-anchor="middle" font-size="12" font-family="Arial">219</text>
<text x="351.3" y="560" text-anchor="middle" font-size="11" font-family="Arial" transform="rotate(33 351.3 560)">Foundation Models / LLM / MLLM</text>
<text x="351.3" y="586" text-anchor="middle" font-size="10" fill="#555" font-family="Arial">17.52%</text>
<rect x="406.0" y="297.1" width="81.3" height="242.9" fill="#76B7B2"/>
<text x="446.7" y="289.1" text-anchor="middle" font-size="12" font-family="Arial">136</text>
<text x="446.7" y="560" text-anchor="middle" font-size="11" font-family="Arial" transform="rotate(33 446.7 560)">Vision-Language / Multimodal Understanding</text>
<text x="446.7" y="586" text-anchor="middle" font-size="10" fill="#555" font-family="Arial">10.88%</text>
<rect x="501.3" y="304.3" width="81.3" height="235.7" fill="#59A14F"/>
<text x="542.0" y="296.3" text-anchor="middle" font-size="12" font-family="Arial">132</text>
<text x="542.0" y="560" text-anchor="middle" font-size="11" font-family="Arial" transform="rotate(33 542.0 560)">Video Understanding / Temporal Modeling</text>
<text x="542.0" y="586" text-anchor="middle" font-size="10" fill="#555" font-family="Arial">10.56%</text>
<rect x="596.7" y="409.6" width="81.3" height="130.4" fill="#EDC948"/>
<text x="637.3" y="401.6" text-anchor="middle" font-size="12" font-family="Arial">73</text>
<text x="637.3" y="560" text-anchor="middle" font-size="11" font-family="Arial" transform="rotate(33 637.3 560)">Retrieval / Recommendation / Search</text>
<text x="637.3" y="586" text-anchor="middle" font-size="10" fill="#555" font-family="Arial">5.84%</text>
<rect x="692.0" y="429.3" width="81.3" height="110.7" fill="#B07AA1"/>
<text x="732.7" y="421.3" text-anchor="middle" font-size="12" font-family="Arial">62</text>
<text x="732.7" y="560" text-anchor="middle" font-size="11" font-family="Arial" transform="rotate(33 732.7 560)">3D / Embodied / Spatial</text>
<text x="732.7" y="586" text-anchor="middle" font-size="10" fill="#555" font-family="Arial">4.96%</text>
<rect x="787.3" y="472.1" width="81.3" height="67.9" fill="#FF9DA7"/>
<text x="828.0" y="464.1" text-anchor="middle" font-size="12" font-family="Arial">38</text>
<text x="828.0" y="560" text-anchor="middle" font-size="11" font-family="Arial" transform="rotate(33 828.0 560)">Security / Privacy / Watermark</text>
<text x="828.0" y="586" text-anchor="middle" font-size="10" fill="#555" font-family="Arial">3.04%</text>
<rect x="882.7" y="488.2" width="81.3" height="51.8" fill="#9C755F"/>
<text x="923.3" y="480.2" text-anchor="middle" font-size="12" font-family="Arial">29</text>
<text x="923.3" y="560" text-anchor="middle" font-size="11" font-family="Arial" transform="rotate(33 923.3 560)">Efficiency / Optimization / Compression</text>
<text x="923.3" y="586" text-anchor="middle" font-size="10" fill="#555" font-family="Arial">2.32%</text>
<rect x="978.0" y="488.2" width="81.3" height="51.8" fill="#BAB0AC"/>
<text x="1018.7" y="480.2" text-anchor="middle" font-size="12" font-family="Arial">29</text>
<text x="1018.7" y="560" text-anchor="middle" font-size="11" font-family="Arial" transform="rotate(33 1018.7 560)">Graph / Knowledge / Causality</text>
<text x="1018.7" y="586" text-anchor="middle" font-size="10" fill="#555" font-family="Arial">2.32%</text>
<rect x="1073.3" y="509.6" width="81.3" height="30.4" fill="#8CD17D"/>
<text x="1114.0" y="501.6" text-anchor="middle" font-size="12" font-family="Arial">17</text>
<text x="1114.0" y="560" text-anchor="middle" font-size="11" font-family="Arial" transform="rotate(33 1114.0 560)">Audio / Speech / Music</text>
<text x="1114.0" y="586" text-anchor="middle" font-size="10" fill="#555" font-family="Arial">1.36%</text>
<rect x="1168.7" y="513.2" width="81.3" height="26.8" fill="#499894"/>
<text x="1209.3" y="505.2" text-anchor="middle" font-size="12" font-family="Arial">15</text>
<text x="1209.3" y="560" text-anchor="middle" font-size="11" font-family="Arial" transform="rotate(33 1209.3 560)">Medical / Bio / Healthcare</text>
<text x="1209.3" y="586" text-anchor="middle" font-size="10" fill="#555" font-family="Arial">1.20%</text>
</svg>