<svg xmlns="http://www.w3.org/2000/svg" width="1200" height="720" viewBox="0 0 1200 720">
<rect width="100%" height="100%" fill="white"/>
<text x="600" y="40" text-anchor="middle" font-size="28" font-family="Arial" font-weight="bold">ACM MM 2025 Accepted Papers by Category</text>
<text x="600" y="66" text-anchor="middle" font-size="16" font-family="Arial" fill="#444">Source: acmmm2025.org accepted papers pages</text>
<line x1="110" y1="550" x2="1160" y2="550" stroke="#222" stroke-width="2"/>
<line x1="110" y1="80" x2="110" y2="550" stroke="#222" stroke-width="2"/>
<line x1="104" y1="550.0" x2="110" y2="550.0" stroke="#222"/>
<text x="98" y="555.0" text-anchor="end" font-size="12" font-family="Arial">0</text>
<line x1="104" y1="456.0" x2="110" y2="456.0" stroke="#222"/>
<text x="98" y="461.0" text-anchor="end" font-size="12" font-family="Arial">250</text>
<line x1="110" y1="456.0" x2="1160" y2="456.0" stroke="#ddd" stroke-dasharray="3,4"/>
<line x1="104" y1="362.0" x2="110" y2="362.0" stroke="#222"/>
<text x="98" y="367.0" text-anchor="end" font-size="12" font-family="Arial">500</text>
<line x1="110" y1="362.0" x2="1160" y2="362.0" stroke="#ddd" stroke-dasharray="3,4"/>
<line x1="104" y1="268.0" x2="110" y2="268.0" stroke="#222"/>
<text x="98" y="273.0" text-anchor="end" font-size="12" font-family="Arial">750</text>
<line x1="110" y1="268.0" x2="1160" y2="268.0" stroke="#ddd" stroke-dasharray="3,4"/>
<line x1="104" y1="174.0" x2="110" y2="174.0" stroke="#222"/>
<text x="98" y="179.0" text-anchor="end" font-size="12" font-family="Arial">1000</text>
<line x1="110" y1="174.0" x2="1160" y2="174.0" stroke="#ddd" stroke-dasharray="3,4"/>
<line x1="104" y1="80.0" x2="110" y2="80.0" stroke="#222"/>
<text x="98" y="85.0" text-anchor="end" font-size="12" font-family="Arial">1250</text>
<line x1="110" y1="80.0" x2="1160" y2="80.0" stroke="#ddd" stroke-dasharray="3,4"/>
<rect x="110.0" y="80.0" width="132.9" height="470.0" fill="#4C78A8"/>
<text x="176.4" y="70.0" text-anchor="middle" font-size="12" font-family="Arial">1250</text>
<text x="176.4" y="570" text-anchor="middle" font-size="12" font-family="Arial" transform="rotate(35 176.4 570)">Regular Papers</text>
<text x="176.4" y="595" text-anchor="middle" font-size="11" fill="#555" font-family="Arial">84.69%</text>
<rect x="262.9" y="503.8" width="132.9" height="46.2" fill="#F58518"/>
<text x="329.3" y="493.8" text-anchor="middle" font-size="12" font-family="Arial">123</text>
<text x="329.3" y="570" text-anchor="middle" font-size="12" font-family="Arial" transform="rotate(35 329.3 570)">Datasets</text>
<text x="329.3" y="595" text-anchor="middle" font-size="11" fill="#555" font-family="Arial">8.33%</text>
<rect x="415.7" y="533.5" width="132.9" height="16.5" fill="#E45756"/>
<text x="482.1" y="523.5" text-anchor="middle" font-size="12" font-family="Arial">44</text>
<text x="482.1" y="570" text-anchor="middle" font-size="12" font-family="Arial" transform="rotate(35 482.1 570)">Brave New Ideas</text>
<text x="482.1" y="595" text-anchor="middle" font-size="11" fill="#555" font-family="Arial">2.98%</text>
<rect x="568.6" y="538.7" width="132.9" height="11.3" fill="#72B7B2"/>
<text x="635.0" y="528.7" text-anchor="middle" font-size="12" font-family="Arial">30</text>
<text x="635.0" y="570" text-anchor="middle" font-size="12" font-family="Arial" transform="rotate(35 635.0 570)">Demo/Video</text>
<text x="635.0" y="595" text-anchor="middle" font-size="11" fill="#555" font-family="Arial">2.03%</text>
<rect x="721.4" y="544.7" width="132.9" height="5.3" fill="#54A24B"/>
<text x="787.9" y="534.7" text-anchor="middle" font-size="12" font-family="Arial">14</text>
<text x="787.9" y="570" text-anchor="middle" font-size="12" font-family="Arial" transform="rotate(35 787.9 570)">Open Source Software</text>
<text x="787.9" y="595" text-anchor="middle" font-size="11" fill="#555" font-family="Arial">0.95%</text>
<rect x="874.3" y="545.5" width="132.9" height="4.5" fill="#EECA3B"/>
<text x="940.7" y="535.5" text-anchor="middle" font-size="12" font-family="Arial">12</text>
<text x="940.7" y="570" text-anchor="middle" font-size="12" font-family="Arial" transform="rotate(35 940.7 570)">Interactive Art</text>
<text x="940.7" y="595" text-anchor="middle" font-size="11" fill="#555" font-family="Arial">0.81%</text>
<rect x="1027.1" y="548.9" width="132.9" height="1.1" fill="#B279A2"/>
<text x="1093.6" y="538.9" text-anchor="middle" font-size="12" font-family="Arial">3</text>
<text x="1093.6" y="570" text-anchor="middle" font-size="12" font-family="Arial" transform="rotate(35 1093.6 570)">Doctoral Symposium</text>
<text x="1093.6" y="595" text-anchor="middle" font-size="11" fill="#555" font-family="Arial">0.20%</text>
</svg>